<?xml version="1.0" encoding="utf-8"?>
<!-- Generator: Adobe Illustrator 22.0.1, SVG Export Plug-In . SVG Version: 6.00 Build 0)  -->
<!DOCTYPE svg PUBLIC "-//W3C//DTD SVG 1.1//EN" "http://www.w3.org/Graphics/SVG/1.1/DTD/svg11.dtd">
<svg version="1.1" id="traced-logo" xmlns="http://www.w3.org/2000/svg" xmlns:xlink="http://www.w3.org/1999/xlink" x="0px"
	 y="0px" viewBox="0 0 589.2 223.8" style="enable-background:new 0 0 589.2 223.8;" xml:space="preserve">
<style type="text/css">
	.st0{fill:#F8991D;}
</style>
<g id="improv">
	<g>
		<path class="st0" d="M143.9,53.6c-1.7,1.4-1.5,2.7-1.1,4.1c4.4,15.2,8.9,30.5,13.3,45.7c2,6.9,4,13.7,5.9,20.7
			c0.9,3.3-0.7,5.6-4.1,6.1c-4.9,0.8-8.3-1.1-9.9-6c-2.2-7-4.2-14.1-6.3-21.2c-3-10.1-5.9-20.1-8.9-30.2c-0.1-0.4-0.3-0.9-0.5-1.3
			c-0.2,0-0.4-0.1-0.7-0.1c-0.2,0.9-0.8,1.8-0.6,2.6c0.7,3.1,1.5,6.2,2.4,9.2c4,13.8,8,27.5,12,41.2c0.9,3.2,0.2,4.4-3,5.3
			c-5.3,1.5-9.7-0.6-11.4-6c-3-9.6-5.7-19.3-8.5-29c-0.7-2.3-1.3-4.6-2.2-7.5c-1,1.4-1.8,2.3-2.4,3.4c-3.1,5.3-6,6.1-10.1,0.4
			c-8-11.3-16.3-22.4-24.5-33.6c-0.4-0.6-0.9-1.2-1.4-1.7c-0.3,0.1-0.5,0.2-0.8,0.4c0.4,1.2,0.6,2.6,1.3,3.6
			c5.9,8.3,11.9,16.5,17.8,24.7c2.6,3.6,5.2,7.1,7.7,10.7c3.1,4.6,1.4,10.8-3.6,13.3c-1.6,0.8-3,0.3-4-0.9c-1.9-2.2-3.6-4.6-5.3-6.9
			c-6-8.3-12-16.6-18.1-24.8c-0.4-0.6-1-1.1-1.6-1.9c-1.4,1.7-0.5,3,0.3,4.2c3.9,5.6,7.9,11.1,11.9,16.6c3.3,4.6,6.6,9.1,9.9,13.7
			c2,2.8,3.1,5.7,1.5,9.1c-1.1,2.3-2.6,3.9-5.1,4.4c-2.4,0.5-3.8-1.3-5-3c-5.1-7-10.2-14-15.4-21c-1.4-1.9-2.8-3.7-4.5-6
			c-0.6,1.2-1,1.9-1.3,2.7c-3.4,9.9-6.7,19.9-10,29.8c-0.5,1.5-1.2,3-2.1,4.4c-0.7,1.1-1.8,1.7-3.1,1c-1.2-0.7-1.8-1.7-1.3-3.2
			c2.9-8.6,5.8-17.2,8.6-25.8c1.6-4.7,3.2-9.4,4.8-14.1c1.5-4.2,4.1-4.7,6.8-1.1c5.8,7.8,11.4,15.8,17.1,23.7
			c1.6,2.2,3.2,4.3,4.7,6.4c1.9-1,1.2-2,0.5-3c-3.9-5.4-7.8-10.9-11.7-16.3c-3.6-5.1-7.3-10.2-10.8-15.3c-3-4.4-2.7-9,0.5-13.2
			c2-2.5,4.2-2.7,6.1-0.1c3.7,4.8,7.3,9.8,10.9,14.7c4.3,5.9,8.6,11.8,13,17.7c0.5,0.6,1.4,0.9,2,1.3c-0.1-0.9,0-2-0.4-2.6
			c-4.8-6.8-9.7-13.5-14.6-20.2C85.5,74,82,69,78.4,64.2c-3.6-4.7-3.1-9.6-0.7-14.4c1.8-3.6,4.2-3.8,6.6-0.5c4.4,6,8.9,12,13.3,18
			c4.8,6.6,9.7,13.2,14.5,19.8c1,1.3,1.6,1.1,2.4-0.1c1.2-1.8,2.3-3.8,3.7-5.5c0.8-1,2.3-2.4,3.3-2.2c1.3,0.3,2.8,1.7,3.2,2.9
			c2.3,7.1,4.4,14.2,6.5,21.4c1.8,6.2,3.7,12.4,5.5,18.5c0.1,0.3,0.1,0.8,0.3,1c0.7,0.6,1.5,1.2,2.2,1.8c0.1-0.8,0.5-1.7,0.3-2.5
			c-1.9-6.8-3.9-13.5-5.9-20.2c-2.3-7.9-4.7-15.7-7-23.6c-1.7-6,0-11.1,4.6-15.2c1.9-1.8,3.7-1.6,4.8,0.8c1.2,2.7,2.1,5.6,2.9,8.4
			c4.9,16.5,9.8,33,14.6,49.5c0.1,0.4,0.1,0.9,0.4,1.2c0.5,0.5,1.2,0.9,1.8,1.3c0.1-0.7,0.5-1.4,0.4-2c-2.4-8.2-4.8-16.5-7.2-24.7
			c-3.8-13-7.7-26-11.3-39c-1.3-4.7,1-9.5,5.4-11.8c2.8-1.5,4.7-1,5.8,1.9c1.7,4.6,3,9.3,4.4,14c5.9,20.2,11.7,40.4,17.5,60.7
			c0.3,1,0.7,2.1,0.6,3.1c-0.1,1-0.7,2.5-1.4,2.6c-0.9,0.3-2.5-0.2-3.1-0.9c-0.9-1-1.4-2.4-1.8-3.8c-6.4-22-12.8-44-19.2-65.9
			C145,57.3,144.5,55.6,143.9,53.6z"/>
		<path class="st0" d="M274.9,90c0-11.7,0-23.3,0-35c0-0.9,0-1.7,0.2-2.5c1-5.1,5.5-7.2,10.2-5c1.8,0.8,2.6,2.3,2.9,4.2
			c0.1,1.1,0.1,2.3,0.1,3.4c0,21.8,0,43.6,0,65.3c0,1,0,2,0.3,3c0.1,0.4,0.7,0.7,1.1,1c0.4-0.4,0.9-0.7,1-1.2
			c0.2-0.7,0.1-1.4,0.1-2.1c0-21,0-42,0-63c0-2.1,0-4.3,0.4-6.4c0.6-3.3,3.3-5,7.3-4.7c3.4,0.2,5.3,2,5.6,5.5
			c0.1,1.1,0.1,2.1,0.1,3.2c0,21.8,0,43.6,0,65.3c0,0.9,0.1,1.9,0.3,2.7c0.1,0.4,0.7,0.9,1,0.9c0.4,0,0.9-0.5,1-0.9
			c0.2-0.7,0.1-1.6,0.1-2.3c0-21.9,0-43.8,0-65.8c0-0.6,0-1.3,0-1.9c0.1-4,1.1-5.7,5.1-6.1c8.7-0.8,17.5-0.8,25.8,2.9
			c11.9,5.4,19,17.6,17.9,30.8c-1,12.4-10.2,23.6-22.3,26.8c-2.9,0.8-6,0.8-9,1.2c-0.8,0.1-2.1,0.4-2.2,0.9
			c-0.2,0.7,0.2,1.8,0.7,2.4c3.1,3.6,7.1,6,11.3,7.8c4.1,1.8,8.5,2.9,12.9,4.3c1.5,0.5,3.3,0.6,3,2.8c-0.2,2-1.8,2.5-3.4,2.3
			c-2.7-0.4-5.5-0.9-8.1-1.7c-6.6-2.2-12.6-5.5-17.9-10c-2.3-2-4.2-4.2-5-7.3c-1-3.9,0.8-6.3,4.9-6.6c3.7-0.3,7.6-0.3,11.2-1.2
			c9.4-2.1,17.1-11.1,18.3-20.6c1.8-14.5-7-26.5-21.6-29c-3.8-0.7-7.8-0.8-11.7-0.9c-3.4-0.1-4.1,0.8-4.1,4.1
			c-0.1,19.9-0.1,39.9-0.2,59.8c0,2.9-0.1,5.8-0.2,8.7c0,2.2-1.2,3.8-3.3,4.2c-2,0.3-4.3,0.4-6.3,0c-2.4-0.5-3.4-2.2-3.4-4.7
			c0-22.8,0-45.6-0.1-68.3c0-0.8,0-1.7-0.2-2.5c-0.1-0.3-0.6-0.8-0.8-0.8c-0.4,0.1-0.9,0.5-1,0.8c-0.2,0.7-0.1,1.5-0.1,2.3
			c0,21.6,0,43.3,0,64.9c0,0.8-0.1,1.6-0.1,2.3c0.2,6-3.3,6.9-8.6,6.4c-3.2-0.3-4.6-2.2-4.8-5.7c-0.1-2.1-0.1-4.3-0.1-6.4
			c0-20.6,0-41.3,0-61.9c0-1.2,0.5-3-1.2-3.1c-2-0.1-1.3,1.9-1.3,3c0,22.8,0,45.7,0,68.5c0,1.3,0,2.8-0.5,4
			c-0.3,0.7-1.4,1.6-2.1,1.7c-0.8,0-2.2-0.8-2.4-1.4c-0.5-1.9-0.6-3.9-0.7-5.9c-0.1-10.8,0-21.6,0-32.5C274.8,90,274.9,90,274.9,90z
			"/>
		<path class="st0" d="M181.3,89.8c0-12,0-23.9,0-35.9c0-3.4,2-5.6,5.4-6c4.1-0.5,6.7,0.9,7.5,4.5c0.3,1.3,0.4,2.7,0.5,4
			c0.2,20.9,0.4,41.8,0.5,62.8c0,1.4,0,2.9,0.3,4.2c0.1,0.5,0.8,1,1.2,1.4c0.3-0.4,0.8-0.8,1-1.3c0.2-0.6,0.1-1.3,0.1-1.9
			c-0.1-16.4-0.1-32.7-0.2-49.1c0-5.3-0.1-10.7-0.2-16c0-0.9,0.1-1.8,0.2-2.7c0.8-4.3,2.9-6.1,7.1-5.9c3.5,0.1,5.7,2.4,6.2,6.4
			c0.1,1.1,0.2,2.3,0.2,3.4c0.1,21.3,0.2,42.7,0.3,64c0,1.1-0.6,2.8,1.3,3c0.1,0,0.9-2,0.9-3c0.1-21.1,0-42.1,0-63.2
			c0-1.3,0.2-2.6,0.2-3.8c-0.2-3.3,1.7-5,4.5-5.8c9.3-2.9,18.3-1.8,26.8,2.7c17.8,9.6,23.2,31.6,11.9,48.4
			c-5.9,8.8-14.6,13.5-25.1,14.7c-2.4,0.3-5,0.2-7.4,0c-1.5-0.1-2.6-0.9-2.4-2.6c0.1-1.7,1.3-2.2,2.8-2.2c4.9,0,9.8-0.2,14.5-2
			c11.8-4.6,19.8-17.2,18.4-29.3c-1.6-13.9-11.6-24.3-25.1-25.8c-3.1-0.4-6.4-0.3-9.5,0.1c-3.5,0.4-4.1,1.4-4.1,5
			c0,21.8-0.1,43.6,0.1,65.3c0.1,6.8-4.5,8-9,6.9c-2.3-0.5-3.8-2.1-3.9-4.5c-0.2-8.7-0.3-17.3-0.4-26c-0.2-14.2-0.3-28.5-0.4-42.7
			c0-0.6,0.1-1.3-0.1-1.9c-0.2-0.5-0.6-0.9-1-1.4c-0.4,0.5-0.9,0.9-1,1.4c-0.2,0.6-0.1,1.3-0.1,1.9c0,22.1,0,44.3,0,66.4
			c0,2.5-0.4,4.7-2.9,5.9c-2.8,1.3-5.8,1.5-8.3-0.3c-1.1-0.8-1.9-2.7-2-4.2c-0.3-6-0.4-12.1-0.5-18.1c-0.1-12.7-0.1-25.3-0.2-38
			c0-4.3,0-8.7-0.2-13c0-0.7-0.8-1.4-1.3-2.1c-0.4,0.6-1.2,1.3-1.2,1.9c-0.1,3.3,0.1,6.5,0.1,9.8c0.1,17.3,0.2,34.6,0.2,51.9
			c0,3.5,0,7-0.1,10.4c0,1.4-0.8,2.4-2.3,2.5c-1.6,0.1-2.6-0.7-2.9-2.2c-0.2-1.3-0.4-2.7-0.4-4C181.4,112.4,181.4,101.1,181.3,89.8
			C181.4,89.8,181.3,89.8,181.3,89.8z"/>
		<path class="st0" d="M501.8,123.7c1.7-1.8,0.7-3,0-4.1c-3.9-6.8-7.9-13.6-11.9-20.5c-8.7-15-17.5-30-26.2-44.9
			c-2.4-4.2-0.6-7.5,4.2-7.7c5.5-0.3,8.7,2.8,11.2,7.1c5.2,8.9,10.3,17.8,15.5,26.7c4.9,8.4,9.7,16.7,14.6,25.1
			c0.4,0.6,0.7,1.3,1.1,1.8c0.2,0.3,0.8,0.6,1,0.5c0.4-0.2,0.8-0.8,0.7-1.1c-0.1-0.7-0.4-1.4-0.7-2c-9.3-15.8-18.5-31.6-27.8-47.4
			c-0.4-0.7-0.8-1.4-1.2-2c-1.2-1.9-1.7-4-0.4-6c1.4-2.2,3.8-2.3,6.1-2.3c4.2,0.1,7.1,2.4,9.2,5.9c6,10.2,12,20.4,18.1,30.7
			c1.4,2.4,2.9,4.9,4.3,7.4c0.3,0.6,0.8,1.1,1.4,2c1.3-2.2,2.4-4.2,3.5-6.1c7.2-12.5,14.4-25,21.6-37.5c0.3-0.5,0.6-0.9,1-1.4
			c1-1.2,2.3-1.7,3.8-0.8c1.4,0.9,1.9,2.4,1,3.9c-1.7,3.1-3.4,6.1-5.1,9.1c-7.1,12.2-14.2,24.5-21.3,36.7c-0.2,0.4-0.4,0.7-0.7,1.1
			c-2.5,3.6-5.9,3.5-8.1-0.2c-3.4-5.7-6.7-11.4-10-17.1c-4.9-8.3-9.7-16.7-14.6-25c-0.8-1.3-1.4-3-3.9-2.8c0.8,1.5,1.5,2.8,2.2,4
			c8.6,14.8,17.2,29.6,25.8,44.4c2.9,5.1,2.7,7.9-1.1,12.4c-2.9,3.4-5.6,3.2-7.8-0.6c-5.2-8.8-10.3-17.7-15.5-26.5
			c-6-10.2-12-20.5-18-30.7c-0.5-0.9-1-1.8-1.7-2.4c-0.5-0.5-1.4-0.5-2.2-0.7c0.1,0.7,0,1.5,0.3,2.1c1.8,3.2,3.7,6.4,5.6,9.6
			c10.5,18,20.9,36,31.4,54c2,3.4,1.4,7.7-1.2,10.4c-2.9,3-6.2,2.8-8.3-0.7c-3.6-5.8-6.9-11.7-10.4-17.6
			c-11-18.9-21.9-37.9-32.9-56.8c-0.5-0.9-1-1.9-1.4-2.9c-0.7-1.6-0.5-3.1,1.1-3.8c1.6-0.8,2.7,0.2,3.5,1.5c1.8,3.1,3.7,6.2,5.5,9.4
			c12.3,21.2,24.7,42.4,37,63.5C500.5,122,501.2,122.8,501.8,123.7z"/>
		<path class="st0" d="M373.6,72.5c-2.1,1.6-2,3.8-2.1,5.9c-0.1,7.5-0.1,15.1-0.1,22.6c0,0.6,0.1,1.3-0.1,1.9
			c-0.2,1.3-0.8,2.3-2.3,2.4c-1.4,0-2.3-0.7-2.5-2.1c-0.1-0.6-0.2-1.3-0.2-1.9c0-8.4-0.1-16.8,0-25.2c0.1-4,1.8-7.4,4.5-10.3
			c0.4-0.4,0.8-0.8,1.3-1.1c1.6-1,3.3-1.9,5.2-1c1.8,0.9,1.8,2.8,1.8,4.5c0.1,6.9,0,13.8,0,20.7c0,6.8-0.1,13.7,0,20.5
			c0,1.9,0.8,3.7,1.2,5.6c0.3,0,0.6-0.1,1-0.1c0-0.7,0.1-1.4,0.1-2.1c0-15.7,0-31.3,0-47c0-3.1,0.2-6.1,0.3-9.2
			c0.3-5.5,6.4-8.1,10.1-7.7c2,0.2,3.4,1.8,3.6,3.9c0.2,2,0.3,4,0.3,6c0,20.7,0,41.4,0,62.1c0,1.1-0.6,3.1,1.2,3.1c2,0,1-2,1-3.1
			c0.1-22.8,0-45.7,0-68.6c0-6.3,1.6-8,7.9-8c17.4-0.1,31.2,6.7,40.6,21.5c10.8,17.1,7.4,40-7.7,54.2c-7.9,7.4-17.1,11.9-28.1,12
			c-2.8,0-4.2-0.7-4.2-2.2c-0.1-1.5,1.3-2.3,4.1-2.5c17.7-1.1,31.6-12.5,36.2-29.6c5.7-21.2-9.5-44.7-31.2-48
			c-2.9-0.5-6-0.5-8.9-0.5c-2.6-0.1-3.1,0.5-3.1,3.1c0,7.7,0,15.4,0,23.1c0,16.1-0.1,32.2,0.1,48.3c0,4.5-1.5,6-4.7,6.6
			c-3.7,0.7-7.6-1.7-8.6-5.1c-0.3-1.1-0.4-2.2-0.4-3.4c0-21.3,0-42.6-0.1-63.9c0-0.8-0.5-1.7-0.8-2.5c-0.5,0.8-1.1,1.5-1.4,2.4
			c-0.3,0.9-0.3,2-0.3,3c0,18.5,0,37,0,55.5c0,0.7,0,1.4,0,2.1c-0.2,3.7-3.2,5.4-6.4,3.5c-5.3-3.2-7.2-8.1-7.2-14.1
			c0-10.7,0-21.5,0-32.2C373.6,74.6,373.6,73.5,373.6,72.5z"/>
		<path class="st0" d="M40.9,87.4c0,12.2,0,24.5,0,36.7c0,4-2.2,6.2-6.4,6.2c-4.6,0-6.9-2-6.9-6.2c0-22.6,0-45.3,0-67.9
			c0-1,0-2-0.3-2.9c-0.1-0.4-0.8-0.9-1.3-1c-0.2,0-0.9,0.7-0.9,1.1c-0.2,1.3-0.3,2.7-0.3,4c-0.1,18.3-0.1,36.6-0.2,54.9
			c0,4.1-0.1,8.2-0.3,12.4c-0.2,3.7-2.5,5.5-6.9,5.6c-4,0-5.9-1.6-6.3-5.3c-0.1-1-0.1-2-0.1-3c0-21.9,0-43.9,0-65.8
			c0-0.4,0.1-0.9,0-1.3c-0.4-0.9-0.9-1.7-1.3-2.6c-0.4,0.9-1.2,1.7-1.2,2.6c-0.1,23.5,0,47-0.1,70.5c0,1,0.1,2.1-0.4,2.9
			c-0.5,0.8-1.6,1.7-2.5,1.7c-0.7,0-1.7-1.1-2.1-2c-0.4-0.8-0.3-2-0.3-2.9c0-23.5,0-47,0-70.5c0-0.5,0-1,0-1.5
			c0.3-5.1,4.2-7.8,9.1-6.1c2.3,0.8,3.6,2.5,3.8,4.9c0.1,1,0.1,2,0.1,3c0,22.1,0,44.1,0,66.2c0,0.9,0,1.9,0.3,2.7
			c0.1,0.4,0.9,0.9,1.4,0.9c0.4,0,0.9-0.6,1.1-1c0.2-0.6,0.1-1.3,0.1-1.9c0-22.1,0-44.1,0-66.2c0-0.7,0-1.4,0-2.1
			c0.5-5.5,3.6-7.8,9-6.8c2.8,0.5,4.5,2.7,4.5,6.1c0.1,2.6,0,5.1,0,7.7c0,20.2,0,40.4,0,60.7c0,0.8-0.2,1.6,0.1,2.3
			c0.2,0.7,0.9,1.2,1.3,1.8c0.5-0.6,1.2-1.1,1.5-1.8c0.3-0.8,0.1-1.7,0.1-2.5c0-23.1,0-46.1,0-69.2c0-1.1-0.1-2.4,0.4-3.3
			c0.4-0.8,1.6-1.6,2.5-1.6c0.7,0,1.6,1.1,2.1,1.9c0.3,0.5,0.1,1.4,0.1,2.1C40.9,63,40.9,75.2,40.9,87.4z"/>
	</g>
</g>
<g>
	<path d="M271.7,214.9c-0.4,0-0.9,0-1.3,0c-81-0.5-133-43.4-135.4-45.1l10.9,0.2c0.6,0.4,55,37.4,124.6,37.9c0.4,0,0.9,0,1.3,0
		c67.7,1.5,128.7-36.6,129.3-37l11.8-0.1C412.2,171.2,343.4,218.4,271.7,214.9z"/>
</g>
<g>
	<path d="M12.7,32.6H8V14.4H2v-3.9h16.7v3.9h-6V32.6z"/>
	<path d="M26.8,24.1v8.5h-4.7V10.5h6.4c3,0,5.2,0.5,6.7,1.6c1.4,1.1,2.2,2.8,2.2,5c0,1.3-0.4,2.5-1.1,3.5c-0.7,1-1.7,1.8-3,2.4
		c3.3,5,5.5,8.2,6.5,9.6h-5.2l-5.3-8.5H26.8z M26.8,20.3h1.5c1.5,0,2.6-0.2,3.3-0.7c0.7-0.5,1.1-1.3,1.1-2.3c0-1-0.4-1.8-1.1-2.2
		c-0.7-0.4-1.8-0.7-3.4-0.7h-1.4V20.3z"/>
	<path d="M56.1,32.6l-1.6-5.3h-8.1l-1.6,5.3h-5.1l7.8-22.2h5.7l7.8,22.2H56.1z M53.4,23.4c-1.5-4.8-2.3-7.5-2.5-8.1
		c-0.2-0.6-0.3-1.1-0.4-1.5c-0.3,1.3-1.3,4.5-2.9,9.6H53.4z"/>
	<path d="M68.5,32.6h-4.6V10.5h12.7v3.8h-8.1v5.7H76v3.8h-7.5V32.6z"/>
	<path d="M85.6,32.6h-4.6V10.5h12.7v3.8h-8.1v5.7h7.5v3.8h-7.5V32.6z"/>
	<path d="M97.9,32.6V10.5h4.7v22.1H97.9z"/>
	<path d="M117.6,14.1c-1.8,0-3.1,0.7-4.1,2c-1,1.3-1.5,3.2-1.5,5.5c0,4.9,1.9,7.4,5.6,7.4c1.6,0,3.4-0.4,5.6-1.2v3.9
		c-1.8,0.8-3.8,1.1-6.1,1.1c-3.2,0-5.7-1-7.4-2.9c-1.7-2-2.6-4.8-2.6-8.4c0-2.3,0.4-4.3,1.3-6c0.8-1.7,2-3.1,3.6-4
		c1.6-0.9,3.4-1.4,5.5-1.4c2.1,0,4.3,0.5,6.5,1.6l-1.5,3.8c-0.8-0.4-1.7-0.7-2.5-1C119.2,14.2,118.4,14.1,117.6,14.1z"/>
	<path d="M149.1,26.5c0,2-0.7,3.6-2.2,4.7c-1.4,1.2-3.4,1.7-6,1.7c-2.4,0-4.5-0.4-6.3-1.3v-4.4c1.5,0.7,2.8,1.1,3.8,1.4
		c1,0.3,2,0.4,2.8,0.4c1,0,1.8-0.2,2.4-0.6c0.5-0.4,0.8-1,0.8-1.8c0-0.4-0.1-0.8-0.4-1.2c-0.2-0.3-0.6-0.7-1.1-1
		c-0.5-0.3-1.4-0.8-2.9-1.5c-1.4-0.6-2.4-1.2-3-1.8c-0.7-0.6-1.2-1.3-1.6-2c-0.4-0.8-0.6-1.7-0.6-2.7c0-2,0.7-3.5,2-4.6
		c1.3-1.1,3.2-1.7,5.5-1.7c1.2,0,2.2,0.1,3.3,0.4c1,0.3,2.1,0.7,3.3,1.2l-1.5,3.6c-1.2-0.5-2.2-0.8-2.9-1c-0.8-0.2-1.5-0.3-2.3-0.3
		c-0.9,0-1.6,0.2-2,0.6c-0.5,0.4-0.7,1-0.7,1.6c0,0.4,0.1,0.8,0.3,1.1c0.2,0.3,0.5,0.6,0.9,0.9c0.4,0.3,1.4,0.8,3,1.6
		c2.1,1,3.5,2,4.3,3C148.7,23.8,149.1,25.1,149.1,26.5z"/>
	<path d="M162.5,14.1c-1.8,0-3.1,0.7-4.1,2c-1,1.3-1.5,3.2-1.5,5.5c0,4.9,1.9,7.4,5.6,7.4c1.6,0,3.4-0.4,5.6-1.2v3.9
		c-1.8,0.8-3.8,1.1-6.1,1.1c-3.2,0-5.7-1-7.4-2.9c-1.7-2-2.6-4.8-2.6-8.4c0-2.3,0.4-4.3,1.3-6c0.8-1.7,2-3.1,3.6-4
		c1.6-0.9,3.4-1.4,5.5-1.4c2.1,0,4.3,0.5,6.5,1.6l-1.5,3.8c-0.8-0.4-1.7-0.7-2.5-1C164.1,14.2,163.3,14.1,162.5,14.1z"/>
	<path d="M191,32.6h-4.7v-9.6h-8.8v9.6h-4.7V10.5h4.7v8.7h8.8v-8.7h4.7V32.6z"/>
	<path d="M216.6,21.5c0,3.7-0.9,6.5-2.7,8.4s-4.4,3-7.8,3s-6-1-7.8-3s-2.7-4.8-2.7-8.5c0-3.7,0.9-6.5,2.7-8.4
		c1.8-1.9,4.4-2.9,7.8-2.9c3.4,0,6,1,7.8,2.9C215.7,15.1,216.6,17.9,216.6,21.5z M200.5,21.5c0,2.5,0.5,4.3,1.4,5.6
		c0.9,1.3,2.3,1.9,4.2,1.9c3.7,0,5.6-2.5,5.6-7.5c0-5-1.9-7.5-5.6-7.5c-1.9,0-3.3,0.6-4.2,1.9C201,17.2,200.5,19.1,200.5,21.5z"/>
	<path d="M241.3,21.5c0,3.7-0.9,6.5-2.7,8.4s-4.4,3-7.8,3s-6-1-7.8-3s-2.7-4.8-2.7-8.5c0-3.7,0.9-6.5,2.7-8.4
		c1.8-1.9,4.4-2.9,7.8-2.9c3.4,0,6,1,7.8,2.9C240.4,15.1,241.3,17.9,241.3,21.5z M225.2,21.5c0,2.5,0.5,4.3,1.4,5.6
		c0.9,1.3,2.3,1.9,4.2,1.9c3.7,0,5.6-2.5,5.6-7.5c0-5-1.9-7.5-5.6-7.5c-1.9,0-3.3,0.6-4.2,1.9C225.6,17.2,225.2,19.1,225.2,21.5z"/>
	<path d="M245.9,32.6V10.5h4.7v18.3h9v3.9H245.9z"/>
	<path d="M293,32.6h-5.3l-3-11.6c-0.1-0.4-0.3-1.3-0.6-2.6c-0.3-1.3-0.4-2.2-0.5-2.6c-0.1,0.5-0.2,1.4-0.5,2.6
		c-0.2,1.2-0.4,2.1-0.6,2.6l-3,11.6h-5.3l-5.6-22.1h4.6l2.8,12.1c0.5,2.2,0.9,4.2,1.1,5.8c0.1-0.6,0.2-1.5,0.4-2.7
		c0.2-1.2,0.4-2.1,0.6-2.8l3.2-12.4h4.4l3.2,12.4c0.1,0.6,0.3,1.4,0.5,2.5c0.2,1.1,0.4,2.1,0.5,2.9c0.1-0.8,0.3-1.8,0.5-2.9
		c0.2-1.2,0.4-2.1,0.6-2.9l2.8-12.1h4.6L293,32.6z"/>
	<path d="M301.4,32.6V10.5h4.7v22.1H301.4z"/>
	<path d="M320.2,32.6h-4.7V14.4h-6v-3.9h16.7v3.9h-6V32.6z"/>
	<path d="M347.8,32.6h-4.7v-9.6h-8.8v9.6h-4.7V10.5h4.7v8.7h8.8v-8.7h4.7V32.6z"/>
	<path d="M375,32.6l-1.6-5.3h-8.1l-1.6,5.3h-5.1l7.8-22.2h5.7l7.8,22.2H375z M372.3,23.4c-1.5-4.8-2.3-7.5-2.5-8.1
		c-0.2-0.6-0.3-1.1-0.4-1.5c-0.3,1.3-1.3,4.5-2.9,9.6H372.3z"/>
	<path d="M403.9,26.5c0,2-0.7,3.6-2.2,4.7c-1.4,1.2-3.4,1.7-6,1.7c-2.4,0-4.5-0.4-6.3-1.3v-4.4c1.5,0.7,2.8,1.1,3.8,1.4
		c1,0.3,2,0.4,2.8,0.4c1,0,1.8-0.2,2.4-0.6c0.5-0.4,0.8-1,0.8-1.8c0-0.4-0.1-0.8-0.4-1.2c-0.2-0.3-0.6-0.7-1.1-1
		c-0.5-0.3-1.4-0.8-2.9-1.5c-1.4-0.6-2.4-1.2-3-1.8c-0.7-0.6-1.2-1.3-1.6-2c-0.4-0.8-0.6-1.7-0.6-2.7c0-2,0.7-3.5,2-4.6
		c1.3-1.1,3.2-1.7,5.5-1.7c1.2,0,2.2,0.1,3.3,0.4c1,0.3,2.1,0.7,3.3,1.2l-1.5,3.6c-1.2-0.5-2.2-0.8-2.9-1c-0.8-0.2-1.5-0.3-2.3-0.3
		c-0.9,0-1.6,0.2-2,0.6c-0.5,0.4-0.7,1-0.7,1.6c0,0.4,0.1,0.8,0.3,1.1c0.2,0.3,0.5,0.6,0.9,0.9c0.4,0.3,1.4,0.8,3,1.6
		c2.1,1,3.5,2,4.3,3C403.6,23.8,403.9,25.1,403.9,26.5z"/>
	<path d="M417.3,32.6L412,15.3h-0.1c0.2,3.5,0.3,5.9,0.3,7.1v10.3h-4.2V10.5h6.4l5.2,16.9h0.1l5.6-16.9h6.4v22.1h-4.4V22.2
		c0-0.5,0-1.1,0-1.7c0-0.6,0.1-2.4,0.2-5.1h-0.1l-5.7,17.3H417.3z"/>
	<path d="M437.2,32.6V10.5h4.7v22.1H437.2z"/>
	<path d="M447.4,32.6V10.5h4.7v18.3h9v3.9H447.4z"/>
	<path d="M477.7,32.6H465V10.5h12.7v3.8h-8.1v4.9h7.5v3.8h-7.5v5.7h8.1V32.6z"/>
</g>
<g>
	<path d="M565.3,56.2h-2.5v-9.7h-3.2v-2.1h8.9v2.1h-3.2V56.2z"/>
	<path d="M575.3,56.2l-2.8-9.2h-0.1c0.1,1.9,0.2,3.1,0.2,3.8v5.5h-2.2V44.4h3.4l2.8,9h0l3-9h3.4v11.8h-2.3v-5.6c0-0.3,0-0.6,0-0.9
		c0-0.3,0-1.3,0.1-2.7h-0.1l-3,9.2H575.3z"/>
</g>
</svg>
